<svg id="visual" viewBox="0 0 900 600" width="900" height="600" xmlns="http://www.w3.org/2000/svg" xmlns:xlink="http://www.w3.org/1999/xlink" version="1.1"><rect x="0" y="0" width="900" height="600" fill="#001220"></rect><defs><linearGradient id="grad1_0" x1="33.3%" y1="0%" x2="100%" y2="100%"><stop offset="20%" stop-color="#001220" stop-opacity="1"></stop><stop offset="80%" stop-color="#001220" stop-opacity="1"></stop></linearGradient></defs><defs><linearGradient id="grad2_0" x1="0%" y1="0%" x2="66.7%" y2="100%"><stop offset="20%" stop-color="#001220" stop-opacity="1"></stop><stop offset="80%" stop-color="#001220" stop-opacity="1"></stop></linearGradient></defs><g transform="translate(900, 0)"><path d="M0 243.4C-22.7 230.8 -45.3 218.1 -68.3 210.2C-91.3 202.2 -114.6 198.9 -137.5 189.3C-160.5 179.7 -183.2 163.8 -196.9 143.1C-210.6 122.3 -215.3 96.7 -221.6 72C-227.8 47.3 -235.6 23.7 -243.4 0L0 0Z" fill="#FBAE3C"></path></g><g transform="translate(0, 600)"><path d="M0 -243.4C21.5 -226.9 43.1 -210.5 65.8 -202.6C88.6 -194.7 112.5 -195.3 136.4 -187.7C160.2 -180.1 184 -164.2 196.9 -143.1C209.8 -121.9 211.9 -95.5 217.8 -70.8C223.7 -46 233.6 -23 243.4 0L0 0Z" fill="#FBAE3C"></path></g></svg>